# xmcd
#
# Track frame offsets:
#	150
#	13575
#	29925
#	43050
#	56175
#	68100
#	79875
#	91200
#	104175
#	117975
#
# Disc length: 1913 seconds
#
# Revision: 0
# Processed by: cddbd v1.5.2PL0 Copyright (c) Steve Scherf et al.
# Submitted via: EasyCDDAExtractor 16.1.0.1
#
DISCID=9107770a
DTITLE=Various Artist - Blues History (1996)
DYEAR=1996
DGENRE=Blues
TTITLE0=Sony Boy Williamson - Sugar Mama Blues
TTITLE1=Joe Williamson - Rocks In My Bed
TTITLE2=Delta Rhythm Boys - Dry Bones
TTITLE3=Leadbelly - Good Morning Blues
TTITLE4=Mulgrew Miller - Two Quittar Boogie
TTITLE5=Etta James - I'd Rather Go Blind
TTITLE6=Bo Diddley - Who Do You Love?
TTITLE7=Muddy Waters - Got My Mojo Working
TTITLE8=Willie Dixon - Walking The Blues
TTITLE9=Jeff Healey Band - Blue Jean Blues
EXTD=
EXTT0=
EXTT1=
EXTT2=
EXTT3=
EXTT4=
EXTT5=
EXTT6=
EXTT7=
EXTT8=
EXTT9=
PLAYORDER=
